<mxfile host="app.diagrams.net" modified="2020-11-20T03:22:50.215Z" agent="5.0 (X11)" etag="dvce_LJgpLq6LK5PbUxo" version="13.10.0" type="github">
  <diagram id="TEdwoYgazixt44riVOfQ" name="Page-1">
    <mxGraphModel dx="2767" dy="1859" grid="1" gridSize="10" guides="1" tooltips="1" connect="1" arrows="1" fold="1" page="1" pageScale="1" pageWidth="850" pageHeight="1100" math="0" shadow="0">
      <root>
        <mxCell id="0" />
        <mxCell id="1" parent="0" />
        <mxCell id="BnXLRBWE-8tpJ5axlchm-1" value="" style="rounded=0;whiteSpace=wrap;html=1;" vertex="1" parent="1">
          <mxGeometry x="40" y="40" width="120" height="180" as="geometry" />
        </mxCell>
        <mxCell id="BnXLRBWE-8tpJ5axlchm-15" value="" style="verticalLabelPosition=bottom;verticalAlign=top;html=1;shape=mxgraph.flowchart.collate;rotation=90;" vertex="1" parent="1">
          <mxGeometry x="60" y="20" width="80" height="120" as="geometry" />
        </mxCell>
        <mxCell id="BnXLRBWE-8tpJ5axlchm-16" value="" style="endArrow=none;html=1;exitX=0;exitY=0.5;exitDx=0;exitDy=0;" edge="1" parent="1" source="BnXLRBWE-8tpJ5axlchm-30">
          <mxGeometry width="50" height="50" relative="1" as="geometry">
            <mxPoint x="40" y="120" as="sourcePoint" />
            <mxPoint x="160" y="120" as="targetPoint" />
          </mxGeometry>
        </mxCell>
        <mxCell id="BnXLRBWE-8tpJ5axlchm-87" style="edgeStyle=orthogonalEdgeStyle;rounded=0;orthogonalLoop=1;jettySize=auto;html=1;exitX=0.75;exitY=1;exitDx=0;exitDy=0;" edge="1" parent="1" source="BnXLRBWE-8tpJ5axlchm-25" target="BnXLRBWE-8tpJ5axlchm-92">
          <mxGeometry relative="1" as="geometry">
            <mxPoint x="20" y="342.85714285714283" as="targetPoint" />
          </mxGeometry>
        </mxCell>
        <mxCell id="BnXLRBWE-8tpJ5axlchm-25" value="Replace" style="rounded=1;fillColor=#0057D8;align=center;strokeColor=none;html=1;fontColor=#ffffff;fontSize=12" vertex="1" parent="1">
          <mxGeometry x="120" y="120" width="40" height="20" as="geometry" />
        </mxCell>
        <mxCell id="BnXLRBWE-8tpJ5axlchm-30" value="filename.ext" style="rounded=0;whiteSpace=wrap;html=1;" vertex="1" parent="1">
          <mxGeometry x="40" y="120" width="80" height="20" as="geometry" />
        </mxCell>
        <mxCell id="BnXLRBWE-8tpJ5axlchm-31" value="" style="endArrow=none;html=1;exitX=0;exitY=0.5;exitDx=0;exitDy=0;" edge="1" parent="1" target="BnXLRBWE-8tpJ5axlchm-30">
          <mxGeometry width="50" height="50" relative="1" as="geometry">
            <mxPoint x="40" y="120" as="sourcePoint" />
            <mxPoint x="160" y="120" as="targetPoint" />
          </mxGeometry>
        </mxCell>
        <mxCell id="BnXLRBWE-8tpJ5axlchm-32" value="&lt;font color=&quot;#FFFFFF&quot;&gt;Delete&lt;/font&gt;" style="rounded=1;align=center;strokeColor=#82b366;html=1;fontSize=12;fillColor=#990000;" vertex="1" parent="1">
          <mxGeometry x="80" y="200" width="40" height="20" as="geometry" />
        </mxCell>
        <mxCell id="BnXLRBWE-8tpJ5axlchm-143" style="edgeStyle=orthogonalEdgeStyle;rounded=0;orthogonalLoop=1;jettySize=auto;html=1;exitX=0.5;exitY=0;exitDx=0;exitDy=0;" edge="1" parent="1" source="BnXLRBWE-8tpJ5axlchm-33" target="BnXLRBWE-8tpJ5axlchm-144">
          <mxGeometry relative="1" as="geometry">
            <mxPoint x="-80" y="120" as="targetPoint" />
          </mxGeometry>
        </mxCell>
        <mxCell id="BnXLRBWE-8tpJ5axlchm-33" value="&lt;div&gt;&lt;font color=&quot;#FFFFFF&quot;&gt;Move&lt;/font&gt;&lt;/div&gt;&lt;div&gt;&lt;font color=&quot;#FFFFFF&quot;&gt;Down&lt;/font&gt;&lt;/div&gt;" style="rounded=1;align=center;strokeColor=#82b366;html=1;fontSize=12;fillColor=#B3B3B3;" vertex="1" parent="1">
          <mxGeometry x="120" y="200" width="40" height="20" as="geometry" />
        </mxCell>
        <mxCell id="BnXLRBWE-8tpJ5axlchm-35" value="&lt;font color=&quot;#FFFFFF&quot;&gt;Move Up&lt;br&gt;&lt;/font&gt;" style="rounded=1;align=center;strokeColor=#82b366;html=1;fontSize=12;fillColor=#B3B3B3;" vertex="1" parent="1">
          <mxGeometry x="40" y="200" width="40" height="20" as="geometry" />
        </mxCell>
        <mxCell id="BnXLRBWE-8tpJ5axlchm-36" value="" style="rounded=0;whiteSpace=wrap;html=1;" vertex="1" parent="1">
          <mxGeometry x="180" y="40" width="120" height="180" as="geometry" />
        </mxCell>
        <mxCell id="BnXLRBWE-8tpJ5axlchm-37" value="" style="verticalLabelPosition=bottom;verticalAlign=top;html=1;shape=mxgraph.flowchart.collate;rotation=90;" vertex="1" parent="1">
          <mxGeometry x="200" y="20" width="80" height="120" as="geometry" />
        </mxCell>
        <mxCell id="BnXLRBWE-8tpJ5axlchm-38" value="" style="endArrow=none;html=1;exitX=0;exitY=0.5;exitDx=0;exitDy=0;" edge="1" parent="1" source="BnXLRBWE-8tpJ5axlchm-40">
          <mxGeometry width="50" height="50" relative="1" as="geometry">
            <mxPoint x="180" y="120" as="sourcePoint" />
            <mxPoint x="300" y="120" as="targetPoint" />
          </mxGeometry>
        </mxCell>
        <mxCell id="BnXLRBWE-8tpJ5axlchm-39" value="Replace" style="rounded=1;fillColor=#0057D8;align=center;strokeColor=none;html=1;fontColor=#ffffff;fontSize=12" vertex="1" parent="1">
          <mxGeometry x="260" y="120" width="40" height="20" as="geometry" />
        </mxCell>
        <mxCell id="BnXLRBWE-8tpJ5axlchm-40" value="filename.ext" style="rounded=0;whiteSpace=wrap;html=1;" vertex="1" parent="1">
          <mxGeometry x="180" y="120" width="80" height="20" as="geometry" />
        </mxCell>
        <mxCell id="BnXLRBWE-8tpJ5axlchm-41" value="" style="endArrow=none;html=1;exitX=0;exitY=0.5;exitDx=0;exitDy=0;" edge="1" parent="1" target="BnXLRBWE-8tpJ5axlchm-40">
          <mxGeometry width="50" height="50" relative="1" as="geometry">
            <mxPoint x="180" y="120" as="sourcePoint" />
            <mxPoint x="300" y="120" as="targetPoint" />
          </mxGeometry>
        </mxCell>
        <mxCell id="BnXLRBWE-8tpJ5axlchm-42" value="&lt;font color=&quot;#FFFFFF&quot;&gt;Delete&lt;/font&gt;" style="rounded=1;align=center;strokeColor=#82b366;html=1;fontSize=12;fillColor=#990000;" vertex="1" parent="1">
          <mxGeometry x="220" y="200" width="40" height="20" as="geometry" />
        </mxCell>
        <mxCell id="BnXLRBWE-8tpJ5axlchm-43" value="&lt;div&gt;&lt;font color=&quot;#FFFFFF&quot;&gt;Move&lt;/font&gt;&lt;/div&gt;&lt;div&gt;&lt;font color=&quot;#FFFFFF&quot;&gt;Down&lt;/font&gt;&lt;/div&gt;" style="rounded=1;align=center;strokeColor=#82b366;html=1;fontSize=12;fillColor=#B3B3B3;" vertex="1" parent="1">
          <mxGeometry x="260" y="200" width="40" height="20" as="geometry" />
        </mxCell>
        <mxCell id="BnXLRBWE-8tpJ5axlchm-45" value="&lt;font color=&quot;#FFFFFF&quot;&gt;Move Up&lt;br&gt;&lt;/font&gt;" style="rounded=1;align=center;strokeColor=#82b366;html=1;fontSize=12;fillColor=#B3B3B3;" vertex="1" parent="1">
          <mxGeometry x="180" y="200" width="40" height="20" as="geometry" />
        </mxCell>
        <mxCell id="BnXLRBWE-8tpJ5axlchm-46" value="" style="rounded=0;whiteSpace=wrap;html=1;" vertex="1" parent="1">
          <mxGeometry x="320" y="40" width="120" height="180" as="geometry" />
        </mxCell>
        <mxCell id="BnXLRBWE-8tpJ5axlchm-47" value="" style="verticalLabelPosition=bottom;verticalAlign=top;html=1;shape=mxgraph.flowchart.collate;rotation=90;" vertex="1" parent="1">
          <mxGeometry x="340" y="20" width="80" height="120" as="geometry" />
        </mxCell>
        <mxCell id="BnXLRBWE-8tpJ5axlchm-48" value="" style="endArrow=none;html=1;exitX=0;exitY=0.5;exitDx=0;exitDy=0;" edge="1" parent="1" source="BnXLRBWE-8tpJ5axlchm-50">
          <mxGeometry width="50" height="50" relative="1" as="geometry">
            <mxPoint x="320" y="120" as="sourcePoint" />
            <mxPoint x="440" y="120" as="targetPoint" />
          </mxGeometry>
        </mxCell>
        <mxCell id="BnXLRBWE-8tpJ5axlchm-49" value="Replace" style="rounded=1;fillColor=#0057D8;align=center;strokeColor=none;html=1;fontColor=#ffffff;fontSize=12" vertex="1" parent="1">
          <mxGeometry x="400" y="120" width="40" height="20" as="geometry" />
        </mxCell>
        <mxCell id="BnXLRBWE-8tpJ5axlchm-50" value="filename.ext" style="rounded=0;whiteSpace=wrap;html=1;" vertex="1" parent="1">
          <mxGeometry x="320" y="120" width="80" height="20" as="geometry" />
        </mxCell>
        <mxCell id="BnXLRBWE-8tpJ5axlchm-51" value="" style="endArrow=none;html=1;exitX=0;exitY=0.5;exitDx=0;exitDy=0;" edge="1" parent="1" target="BnXLRBWE-8tpJ5axlchm-50">
          <mxGeometry width="50" height="50" relative="1" as="geometry">
            <mxPoint x="320" y="120" as="sourcePoint" />
            <mxPoint x="440" y="120" as="targetPoint" />
          </mxGeometry>
        </mxCell>
        <mxCell id="BnXLRBWE-8tpJ5axlchm-52" value="&lt;font color=&quot;#FFFFFF&quot;&gt;Delete&lt;/font&gt;" style="rounded=1;align=center;strokeColor=#82b366;html=1;fontSize=12;fillColor=#990000;" vertex="1" parent="1">
          <mxGeometry x="360" y="200" width="40" height="20" as="geometry" />
        </mxCell>
        <mxCell id="BnXLRBWE-8tpJ5axlchm-53" value="&lt;div&gt;&lt;font color=&quot;#FFFFFF&quot;&gt;Move&lt;/font&gt;&lt;/div&gt;&lt;div&gt;&lt;font color=&quot;#FFFFFF&quot;&gt;Down&lt;/font&gt;&lt;/div&gt;" style="rounded=1;align=center;strokeColor=#82b366;html=1;fontSize=12;fillColor=#B3B3B3;" vertex="1" parent="1">
          <mxGeometry x="400" y="200" width="40" height="20" as="geometry" />
        </mxCell>
        <mxCell id="BnXLRBWE-8tpJ5axlchm-55" value="&lt;font color=&quot;#FFFFFF&quot;&gt;Move Up&lt;br&gt;&lt;/font&gt;" style="rounded=1;align=center;strokeColor=#82b366;html=1;fontSize=12;fillColor=#B3B3B3;" vertex="1" parent="1">
          <mxGeometry x="320" y="200" width="40" height="20" as="geometry" />
        </mxCell>
        <mxCell id="BnXLRBWE-8tpJ5axlchm-56" value="" style="rounded=0;whiteSpace=wrap;html=1;" vertex="1" parent="1">
          <mxGeometry x="480" y="40" width="120" height="180" as="geometry" />
        </mxCell>
        <mxCell id="BnXLRBWE-8tpJ5axlchm-57" value="" style="verticalLabelPosition=bottom;verticalAlign=top;html=1;shape=mxgraph.flowchart.collate;rotation=90;" vertex="1" parent="1">
          <mxGeometry x="500" y="20" width="80" height="120" as="geometry" />
        </mxCell>
        <mxCell id="BnXLRBWE-8tpJ5axlchm-58" value="" style="endArrow=none;html=1;exitX=0;exitY=0.5;exitDx=0;exitDy=0;" edge="1" parent="1" source="BnXLRBWE-8tpJ5axlchm-60">
          <mxGeometry width="50" height="50" relative="1" as="geometry">
            <mxPoint x="480" y="120" as="sourcePoint" />
            <mxPoint x="600" y="120" as="targetPoint" />
          </mxGeometry>
        </mxCell>
        <mxCell id="BnXLRBWE-8tpJ5axlchm-59" value="Replace" style="rounded=1;fillColor=#0057D8;align=center;strokeColor=none;html=1;fontColor=#ffffff;fontSize=12" vertex="1" parent="1">
          <mxGeometry x="560" y="120" width="40" height="20" as="geometry" />
        </mxCell>
        <mxCell id="BnXLRBWE-8tpJ5axlchm-60" value="filename.ext" style="rounded=0;whiteSpace=wrap;html=1;" vertex="1" parent="1">
          <mxGeometry x="480" y="120" width="80" height="20" as="geometry" />
        </mxCell>
        <mxCell id="BnXLRBWE-8tpJ5axlchm-61" value="" style="endArrow=none;html=1;exitX=0;exitY=0.5;exitDx=0;exitDy=0;" edge="1" parent="1" target="BnXLRBWE-8tpJ5axlchm-60">
          <mxGeometry width="50" height="50" relative="1" as="geometry">
            <mxPoint x="480" y="120" as="sourcePoint" />
            <mxPoint x="600" y="120" as="targetPoint" />
          </mxGeometry>
        </mxCell>
        <mxCell id="BnXLRBWE-8tpJ5axlchm-62" value="&lt;font color=&quot;#FFFFFF&quot;&gt;Delete&lt;/font&gt;" style="rounded=1;align=center;strokeColor=#82b366;html=1;fontSize=12;fillColor=#990000;" vertex="1" parent="1">
          <mxGeometry x="520" y="200" width="40" height="20" as="geometry" />
        </mxCell>
        <mxCell id="BnXLRBWE-8tpJ5axlchm-63" value="&lt;div&gt;&lt;font color=&quot;#FFFFFF&quot;&gt;Move&lt;/font&gt;&lt;/div&gt;&lt;div&gt;&lt;font color=&quot;#FFFFFF&quot;&gt;Down&lt;/font&gt;&lt;/div&gt;" style="rounded=1;align=center;strokeColor=#82b366;html=1;fontSize=12;fillColor=#B3B3B3;" vertex="1" parent="1">
          <mxGeometry x="560" y="200" width="40" height="20" as="geometry" />
        </mxCell>
        <mxCell id="BnXLRBWE-8tpJ5axlchm-65" value="&lt;font color=&quot;#FFFFFF&quot;&gt;Move Up&lt;br&gt;&lt;/font&gt;" style="rounded=1;align=center;strokeColor=#82b366;html=1;fontSize=12;fillColor=#B3B3B3;" vertex="1" parent="1">
          <mxGeometry x="480" y="200" width="40" height="20" as="geometry" />
        </mxCell>
        <mxCell id="BnXLRBWE-8tpJ5axlchm-66" value="" style="rounded=0;whiteSpace=wrap;html=1;" vertex="1" parent="1">
          <mxGeometry x="620" y="40" width="120" height="180" as="geometry" />
        </mxCell>
        <mxCell id="BnXLRBWE-8tpJ5axlchm-67" value="" style="verticalLabelPosition=bottom;verticalAlign=top;html=1;shape=mxgraph.flowchart.collate;rotation=90;" vertex="1" parent="1">
          <mxGeometry x="640" y="20" width="80" height="120" as="geometry" />
        </mxCell>
        <mxCell id="BnXLRBWE-8tpJ5axlchm-68" value="" style="endArrow=none;html=1;exitX=0;exitY=0.5;exitDx=0;exitDy=0;" edge="1" parent="1" source="BnXLRBWE-8tpJ5axlchm-70">
          <mxGeometry width="50" height="50" relative="1" as="geometry">
            <mxPoint x="620" y="120" as="sourcePoint" />
            <mxPoint x="740" y="120" as="targetPoint" />
          </mxGeometry>
        </mxCell>
        <mxCell id="BnXLRBWE-8tpJ5axlchm-69" value="Replace" style="rounded=1;fillColor=#0057D8;align=center;strokeColor=none;html=1;fontColor=#ffffff;fontSize=12" vertex="1" parent="1">
          <mxGeometry x="700" y="120" width="40" height="20" as="geometry" />
        </mxCell>
        <mxCell id="BnXLRBWE-8tpJ5axlchm-70" value="filename.ext" style="rounded=0;whiteSpace=wrap;html=1;" vertex="1" parent="1">
          <mxGeometry x="620" y="120" width="80" height="20" as="geometry" />
        </mxCell>
        <mxCell id="BnXLRBWE-8tpJ5axlchm-71" value="" style="endArrow=none;html=1;exitX=0;exitY=0.5;exitDx=0;exitDy=0;" edge="1" parent="1" target="BnXLRBWE-8tpJ5axlchm-70">
          <mxGeometry width="50" height="50" relative="1" as="geometry">
            <mxPoint x="620" y="120" as="sourcePoint" />
            <mxPoint x="740" y="120" as="targetPoint" />
          </mxGeometry>
        </mxCell>
        <mxCell id="BnXLRBWE-8tpJ5axlchm-72" value="&lt;font color=&quot;#FFFFFF&quot;&gt;Delete&lt;/font&gt;" style="rounded=1;align=center;strokeColor=#82b366;html=1;fontSize=12;fillColor=#990000;" vertex="1" parent="1">
          <mxGeometry x="660" y="200" width="40" height="20" as="geometry" />
        </mxCell>
        <mxCell id="BnXLRBWE-8tpJ5axlchm-73" value="&lt;div&gt;&lt;font color=&quot;#FFFFFF&quot;&gt;Move&lt;/font&gt;&lt;/div&gt;&lt;div&gt;&lt;font color=&quot;#FFFFFF&quot;&gt;Down&lt;/font&gt;&lt;/div&gt;" style="rounded=1;align=center;strokeColor=#82b366;html=1;fontSize=12;fillColor=#B3B3B3;" vertex="1" parent="1">
          <mxGeometry x="700" y="200" width="40" height="20" as="geometry" />
        </mxCell>
        <mxCell id="BnXLRBWE-8tpJ5axlchm-75" value="&lt;font color=&quot;#FFFFFF&quot;&gt;Move Up&lt;br&gt;&lt;/font&gt;" style="rounded=1;align=center;strokeColor=#82b366;html=1;fontSize=12;fillColor=#B3B3B3;" vertex="1" parent="1">
          <mxGeometry x="620" y="200" width="40" height="20" as="geometry" />
        </mxCell>
        <mxCell id="BnXLRBWE-8tpJ5axlchm-89" value="" style="outlineConnect=0;fontColor=#232F3E;gradientColor=none;fillColor=#232F3E;strokeColor=none;dashed=0;verticalLabelPosition=bottom;verticalAlign=top;align=center;html=1;fontSize=12;fontStyle=0;aspect=fixed;pointerEvents=1;shape=mxgraph.aws4.traditional_server;" vertex="1" parent="1">
          <mxGeometry y="350" width="45" height="78" as="geometry" />
        </mxCell>
        <mxCell id="BnXLRBWE-8tpJ5axlchm-91" value="" style="endArrow=classic;html=1;exitX=1.037;exitY=0.589;exitDx=0;exitDy=0;exitPerimeter=0;" edge="1" parent="1" target="BnXLRBWE-8tpJ5axlchm-89">
          <mxGeometry width="50" height="50" relative="1" as="geometry">
            <mxPoint x="-48.44699999999989" y="393.9839999999999" as="sourcePoint" />
            <mxPoint x="70" y="290" as="targetPoint" />
          </mxGeometry>
        </mxCell>
        <mxCell id="BnXLRBWE-8tpJ5axlchm-92" value="Form Data" style="swimlane;fontStyle=0;childLayout=stackLayout;horizontal=1;startSize=26;fillColor=none;horizontalStack=0;resizeParent=1;resizeParentMax=0;resizeLast=0;collapsible=1;marginBottom=0;" vertex="1" parent="1">
          <mxGeometry x="-140" y="220" width="140" height="78" as="geometry" />
        </mxCell>
        <mxCell id="BnXLRBWE-8tpJ5axlchm-93" value="row_num" style="text;strokeColor=none;fillColor=none;align=left;verticalAlign=top;spacingLeft=4;spacingRight=4;overflow=hidden;rotatable=0;points=[[0,0.5],[1,0.5]];portConstraint=eastwest;" vertex="1" parent="BnXLRBWE-8tpJ5axlchm-92">
          <mxGeometry y="26" width="140" height="26" as="geometry" />
        </mxCell>
        <mxCell id="BnXLRBWE-8tpJ5axlchm-94" value="file" style="text;strokeColor=none;fillColor=none;align=left;verticalAlign=top;spacingLeft=4;spacingRight=4;overflow=hidden;rotatable=0;points=[[0,0.5],[1,0.5]];portConstraint=eastwest;" vertex="1" parent="BnXLRBWE-8tpJ5axlchm-92">
          <mxGeometry y="52" width="140" height="26" as="geometry" />
        </mxCell>
        <mxCell id="BnXLRBWE-8tpJ5axlchm-97" style="edgeStyle=orthogonalEdgeStyle;rounded=0;orthogonalLoop=1;jettySize=auto;html=1;exitX=1.004;exitY=0.144;exitDx=0;exitDy=0;exitPerimeter=0;" edge="1" parent="1" source="BnXLRBWE-8tpJ5axlchm-92" target="BnXLRBWE-8tpJ5axlchm-89">
          <mxGeometry relative="1" as="geometry">
            <Array as="points">
              <mxPoint x="22" y="231" />
            </Array>
          </mxGeometry>
        </mxCell>
        <mxCell id="BnXLRBWE-8tpJ5axlchm-98" value="" style="dashed=0;outlineConnect=0;html=1;align=center;labelPosition=center;verticalLabelPosition=bottom;verticalAlign=top;shape=mxgraph.weblogos.json;fillColor=#B3B3B3;" vertex="1" parent="1">
          <mxGeometry x="-100" y="370" width="45.07" height="48.8" as="geometry" />
        </mxCell>
        <mxCell id="BnXLRBWE-8tpJ5axlchm-99" value="pictures.json" style="text;html=1;strokeColor=none;fillColor=none;align=center;verticalAlign=middle;whiteSpace=wrap;rounded=0;" vertex="1" parent="1">
          <mxGeometry x="-97.47" y="350" width="40" height="20" as="geometry" />
        </mxCell>
        <mxCell id="BnXLRBWE-8tpJ5axlchm-100" value="picture" style="swimlane;fontStyle=0;childLayout=stackLayout;horizontal=1;startSize=26;fillColor=none;horizontalStack=0;resizeParent=1;resizeParentMax=0;resizeLast=0;collapsible=1;marginBottom=0;" vertex="1" parent="1">
          <mxGeometry x="-310" y="330" width="140" height="104" as="geometry" />
        </mxCell>
        <mxCell id="BnXLRBWE-8tpJ5axlchm-101" value="filename.ext" style="text;strokeColor=none;fillColor=none;align=left;verticalAlign=top;spacingLeft=4;spacingRight=4;overflow=hidden;rotatable=0;points=[[0,0.5],[1,0.5]];portConstraint=eastwest;" vertex="1" parent="BnXLRBWE-8tpJ5axlchm-100">
          <mxGeometry y="26" width="140" height="26" as="geometry" />
        </mxCell>
        <mxCell id="BnXLRBWE-8tpJ5axlchm-102" value="which_gallery?" style="text;strokeColor=none;fillColor=none;align=left;verticalAlign=top;spacingLeft=4;spacingRight=4;overflow=hidden;rotatable=0;points=[[0,0.5],[1,0.5]];portConstraint=eastwest;" vertex="1" parent="BnXLRBWE-8tpJ5axlchm-100">
          <mxGeometry y="52" width="140" height="26" as="geometry" />
        </mxCell>
        <mxCell id="BnXLRBWE-8tpJ5axlchm-103" value="additional_metadata" style="text;strokeColor=none;fillColor=none;align=left;verticalAlign=top;spacingLeft=4;spacingRight=4;overflow=hidden;rotatable=0;points=[[0,0.5],[1,0.5]];portConstraint=eastwest;" vertex="1" parent="BnXLRBWE-8tpJ5axlchm-100">
          <mxGeometry y="78" width="140" height="26" as="geometry" />
        </mxCell>
        <mxCell id="BnXLRBWE-8tpJ5axlchm-104" value="" style="endArrow=classic;startArrow=classic;html=1;exitX=1;exitY=0.5;exitDx=0;exitDy=0;" edge="1" parent="1" source="BnXLRBWE-8tpJ5axlchm-102" target="BnXLRBWE-8tpJ5axlchm-98">
          <mxGeometry width="50" height="50" relative="1" as="geometry">
            <mxPoint x="20" y="360" as="sourcePoint" />
            <mxPoint x="70" y="310" as="targetPoint" />
          </mxGeometry>
        </mxCell>
        <mxCell id="BnXLRBWE-8tpJ5axlchm-105" value="pictureArray" style="swimlane;fontStyle=0;childLayout=stackLayout;horizontal=1;startSize=26;fillColor=none;horizontalStack=0;resizeParent=1;resizeParentMax=0;resizeLast=0;collapsible=1;marginBottom=0;" vertex="1" parent="1">
          <mxGeometry y="460" width="140" height="104" as="geometry" />
        </mxCell>
        <mxCell id="BnXLRBWE-8tpJ5axlchm-110" value="photo_zero&#xa;" style="text;strokeColor=none;fillColor=none;align=left;verticalAlign=top;spacingLeft=4;spacingRight=4;overflow=hidden;rotatable=0;points=[[0,0.5],[1,0.5]];portConstraint=eastwest;" vertex="1" parent="BnXLRBWE-8tpJ5axlchm-105">
          <mxGeometry y="26" width="140" height="26" as="geometry" />
        </mxCell>
        <mxCell id="BnXLRBWE-8tpJ5axlchm-106" value="photo_one" style="text;strokeColor=none;fillColor=none;align=left;verticalAlign=top;spacingLeft=4;spacingRight=4;overflow=hidden;rotatable=0;points=[[0,0.5],[1,0.5]];portConstraint=eastwest;" vertex="1" parent="BnXLRBWE-8tpJ5axlchm-105">
          <mxGeometry y="52" width="140" height="26" as="geometry" />
        </mxCell>
        <mxCell id="BnXLRBWE-8tpJ5axlchm-107" value="photo_two" style="text;strokeColor=none;fillColor=none;align=left;verticalAlign=top;spacingLeft=4;spacingRight=4;overflow=hidden;rotatable=0;points=[[0,0.5],[1,0.5]];portConstraint=eastwest;" vertex="1" parent="BnXLRBWE-8tpJ5axlchm-105">
          <mxGeometry y="78" width="140" height="26" as="geometry" />
        </mxCell>
        <mxCell id="BnXLRBWE-8tpJ5axlchm-117" value="" style="endArrow=classic;html=1;entryX=0.147;entryY=0.015;entryDx=0;entryDy=0;entryPerimeter=0;" edge="1" parent="1" source="BnXLRBWE-8tpJ5axlchm-89" target="BnXLRBWE-8tpJ5axlchm-105">
          <mxGeometry width="50" height="50" relative="1" as="geometry">
            <mxPoint x="-120" y="490" as="sourcePoint" />
            <mxPoint x="-70" y="440" as="targetPoint" />
          </mxGeometry>
        </mxCell>
        <mxCell id="BnXLRBWE-8tpJ5axlchm-120" value="" style="endArrow=classic;html=1;exitX=0.26;exitY=1.093;exitDx=0;exitDy=0;exitPerimeter=0;" edge="1" parent="1" source="BnXLRBWE-8tpJ5axlchm-107">
          <mxGeometry width="50" height="50" relative="1" as="geometry">
            <mxPoint x="-120" y="490" as="sourcePoint" />
            <mxPoint x="20" y="440" as="targetPoint" />
            <Array as="points">
              <mxPoint x="36" y="600" />
              <mxPoint x="190" y="600" />
              <mxPoint x="190" y="440" />
            </Array>
          </mxGeometry>
        </mxCell>
        <mxCell id="BnXLRBWE-8tpJ5axlchm-123" value="&lt;div&gt;index&lt;/div&gt;&lt;div&gt;==&lt;/div&gt;&lt;div&gt;row_num&lt;/div&gt;" style="rhombus;whiteSpace=wrap;html=1;fillColor=#B3B3B3;" vertex="1" parent="1">
          <mxGeometry x="150" y="470" width="80" height="80" as="geometry" />
        </mxCell>
        <mxCell id="BnXLRBWE-8tpJ5axlchm-124" value="" style="endArrow=classic;html=1;exitX=1;exitY=0.5;exitDx=0;exitDy=0;" edge="1" parent="1" source="BnXLRBWE-8tpJ5axlchm-123">
          <mxGeometry width="50" height="50" relative="1" as="geometry">
            <mxPoint x="30" y="490" as="sourcePoint" />
            <mxPoint x="280" y="510" as="targetPoint" />
          </mxGeometry>
        </mxCell>
        <mxCell id="BnXLRBWE-8tpJ5axlchm-125" value="" style="endArrow=classic;html=1;exitX=1;exitY=0.5;exitDx=0;exitDy=0;" edge="1" parent="1" source="BnXLRBWE-8tpJ5axlchm-93">
          <mxGeometry width="50" height="50" relative="1" as="geometry">
            <mxPoint x="20" y="260" as="sourcePoint" />
            <mxPoint x="440" y="490" as="targetPoint" />
          </mxGeometry>
        </mxCell>
        <mxCell id="BnXLRBWE-8tpJ5axlchm-126" value="&lt;div&gt;old&lt;/div&gt;&lt;div&gt;data&lt;br&gt;&lt;/div&gt;" style="rounded=0;whiteSpace=wrap;html=1;fillColor=#B3B3B3;" vertex="1" parent="1">
          <mxGeometry x="280" y="490" width="50" height="50" as="geometry" />
        </mxCell>
        <mxCell id="BnXLRBWE-8tpJ5axlchm-128" value="" style="shape=flexArrow;endArrow=classic;html=1;" edge="1" parent="1">
          <mxGeometry width="50" height="50" relative="1" as="geometry">
            <mxPoint x="340" y="514.66" as="sourcePoint" />
            <mxPoint x="410" y="514.66" as="targetPoint" />
            <Array as="points" />
          </mxGeometry>
        </mxCell>
        <mxCell id="BnXLRBWE-8tpJ5axlchm-129" value="&lt;div&gt;new&lt;/div&gt;&lt;div&gt;data&lt;br&gt;&lt;/div&gt;" style="rounded=0;whiteSpace=wrap;html=1;fillColor=#B3B3B3;" vertex="1" parent="1">
          <mxGeometry x="420" y="487" width="50" height="50" as="geometry" />
        </mxCell>
        <mxCell id="BnXLRBWE-8tpJ5axlchm-130" value="" style="endArrow=classic;html=1;exitX=0.5;exitY=1;exitDx=0;exitDy=0;entryX=0;entryY=0.25;entryDx=0;entryDy=0;" edge="1" parent="1" source="BnXLRBWE-8tpJ5axlchm-129" target="BnXLRBWE-8tpJ5axlchm-105">
          <mxGeometry width="50" height="50" relative="1" as="geometry">
            <mxPoint x="30" y="510" as="sourcePoint" />
            <mxPoint x="445" y="620" as="targetPoint" />
            <Array as="points">
              <mxPoint x="445" y="630" />
              <mxPoint x="-40" y="630" />
              <mxPoint x="-40" y="486" />
            </Array>
          </mxGeometry>
        </mxCell>
        <mxCell id="BnXLRBWE-8tpJ5axlchm-131" value="" style="endArrow=classic;html=1;exitX=0;exitY=0.5;exitDx=0;exitDy=0;" edge="1" parent="1" source="BnXLRBWE-8tpJ5axlchm-106" target="BnXLRBWE-8tpJ5axlchm-98">
          <mxGeometry width="50" height="50" relative="1" as="geometry">
            <mxPoint x="30" y="510" as="sourcePoint" />
            <mxPoint x="-90" y="430" as="targetPoint" />
            <Array as="points">
              <mxPoint x="-80" y="525" />
            </Array>
          </mxGeometry>
        </mxCell>
        <mxCell id="BnXLRBWE-8tpJ5axlchm-132" style="edgeStyle=orthogonalEdgeStyle;rounded=0;orthogonalLoop=1;jettySize=auto;html=1;exitX=1;exitY=0.5;exitDx=0;exitDy=0;" edge="1" parent="1" source="BnXLRBWE-8tpJ5axlchm-94">
          <mxGeometry relative="1" as="geometry">
            <mxPoint x="558.2758620689655" y="480.0000000000001" as="targetPoint" />
          </mxGeometry>
        </mxCell>
        <mxCell id="BnXLRBWE-8tpJ5axlchm-133" value="" style="image;html=1;image=img/lib/clip_art/general/Empty_Folder_128x128.png;fillColor=#B3B3B3;" vertex="1" parent="1">
          <mxGeometry x="520" y="484" width="70" height="46" as="geometry" />
        </mxCell>
        <mxCell id="BnXLRBWE-8tpJ5axlchm-134" value="" style="outlineConnect=0;fontColor=#232F3E;gradientColor=none;fillColor=#D05C17;strokeColor=none;dashed=0;verticalLabelPosition=bottom;verticalAlign=top;align=center;html=1;fontSize=12;fontStyle=0;aspect=fixed;pointerEvents=1;shape=mxgraph.aws4.container_registry_image;" vertex="1" parent="1">
          <mxGeometry x="500" y="550" width="30" height="30" as="geometry" />
        </mxCell>
        <mxCell id="BnXLRBWE-8tpJ5axlchm-135" value="" style="shape=flexArrow;endArrow=classic;html=1;" edge="1" parent="1">
          <mxGeometry width="50" height="50" relative="1" as="geometry">
            <mxPoint x="540" y="564" as="sourcePoint" />
            <mxPoint x="600" y="564" as="targetPoint" />
          </mxGeometry>
        </mxCell>
        <mxCell id="BnXLRBWE-8tpJ5axlchm-136" value="" style="outlineConnect=0;fontColor=#232F3E;gradientColor=none;fillColor=#D05C17;strokeColor=none;dashed=0;verticalLabelPosition=bottom;verticalAlign=top;align=center;html=1;fontSize=12;fontStyle=0;aspect=fixed;pointerEvents=1;shape=mxgraph.aws4.container_registry_image;" vertex="1" parent="1">
          <mxGeometry x="610" y="546" width="34" height="34" as="geometry" />
        </mxCell>
        <mxCell id="BnXLRBWE-8tpJ5axlchm-137" value="Old" style="text;html=1;strokeColor=none;fillColor=none;align=center;verticalAlign=middle;whiteSpace=wrap;rounded=0;" vertex="1" parent="1">
          <mxGeometry x="495" y="580" width="40" height="20" as="geometry" />
        </mxCell>
        <mxCell id="BnXLRBWE-8tpJ5axlchm-138" value="&lt;div&gt;New&lt;/div&gt;" style="text;html=1;strokeColor=none;fillColor=none;align=center;verticalAlign=middle;whiteSpace=wrap;rounded=0;" vertex="1" parent="1">
          <mxGeometry x="607" y="580" width="40" height="20" as="geometry" />
        </mxCell>
        <mxCell id="BnXLRBWE-8tpJ5axlchm-139" value="" style="endArrow=classic;html=1;entryX=0.25;entryY=0;entryDx=0;entryDy=0;" edge="1" parent="1" target="BnXLRBWE-8tpJ5axlchm-129">
          <mxGeometry width="50" height="50" relative="1" as="geometry">
            <mxPoint x="630" y="546" as="sourcePoint" />
            <mxPoint x="250" y="396" as="targetPoint" />
            <Array as="points">
              <mxPoint x="630" y="460" />
              <mxPoint x="433" y="460" />
            </Array>
          </mxGeometry>
        </mxCell>
        <mxCell id="BnXLRBWE-8tpJ5axlchm-140" value="filename.ext" style="text;html=1;strokeColor=none;fillColor=none;align=center;verticalAlign=middle;whiteSpace=wrap;rounded=0;" vertex="1" parent="1">
          <mxGeometry x="480" y="440" width="40" height="20" as="geometry" />
        </mxCell>
        <mxCell id="BnXLRBWE-8tpJ5axlchm-141" value="" style="endArrow=classic;html=1;exitX=0.25;exitY=0;exitDx=0;exitDy=0;" edge="1" parent="1" source="BnXLRBWE-8tpJ5axlchm-99">
          <mxGeometry width="50" height="50" relative="1" as="geometry">
            <mxPoint x="-60" y="370" as="sourcePoint" />
            <mxPoint x="-320" y="220" as="targetPoint" />
            <Array as="points">
              <mxPoint x="-87" y="320" />
              <mxPoint x="-320" y="320" />
              <mxPoint x="-320" y="310" />
            </Array>
          </mxGeometry>
        </mxCell>
        <mxCell id="BnXLRBWE-8tpJ5axlchm-142" value="" style="endArrow=classic;html=1;exitX=0;exitY=0.5;exitDx=0;exitDy=0;entryX=0.49;entryY=1.083;entryDx=0;entryDy=0;entryPerimeter=0;" edge="1" parent="1" source="BnXLRBWE-8tpJ5axlchm-35" target="BnXLRBWE-8tpJ5axlchm-146">
          <mxGeometry width="50" height="50" relative="1" as="geometry">
            <mxPoint x="-60" y="370" as="sourcePoint" />
            <mxPoint x="-80" y="120" as="targetPoint" />
          </mxGeometry>
        </mxCell>
        <mxCell id="BnXLRBWE-8tpJ5axlchm-144" value="Form Data" style="swimlane;fontStyle=0;childLayout=stackLayout;horizontal=1;startSize=26;fillColor=none;horizontalStack=0;resizeParent=1;resizeParentMax=0;resizeLast=0;collapsible=1;marginBottom=0;" vertex="1" parent="1">
          <mxGeometry x="-147.47" y="16" width="140" height="78" as="geometry" />
        </mxCell>
        <mxCell id="BnXLRBWE-8tpJ5axlchm-145" value="row_num" style="text;strokeColor=none;fillColor=none;align=left;verticalAlign=top;spacingLeft=4;spacingRight=4;overflow=hidden;rotatable=0;points=[[0,0.5],[1,0.5]];portConstraint=eastwest;" vertex="1" parent="BnXLRBWE-8tpJ5axlchm-144">
          <mxGeometry y="26" width="140" height="26" as="geometry" />
        </mxCell>
        <mxCell id="BnXLRBWE-8tpJ5axlchm-146" value="direction" style="text;strokeColor=none;fillColor=none;align=left;verticalAlign=top;spacingLeft=4;spacingRight=4;overflow=hidden;rotatable=0;points=[[0,0.5],[1,0.5]];portConstraint=eastwest;" vertex="1" parent="BnXLRBWE-8tpJ5axlchm-144">
          <mxGeometry y="52" width="140" height="26" as="geometry" />
        </mxCell>
        <mxCell id="BnXLRBWE-8tpJ5axlchm-159" style="edgeStyle=orthogonalEdgeStyle;rounded=0;orthogonalLoop=1;jettySize=auto;html=1;exitX=0.75;exitY=1;exitDx=0;exitDy=0;entryX=0.75;entryY=0;entryDx=0;entryDy=0;" edge="1" parent="1" source="BnXLRBWE-8tpJ5axlchm-148" target="BnXLRBWE-8tpJ5axlchm-99">
          <mxGeometry relative="1" as="geometry">
            <Array as="points">
              <mxPoint x="-240" y="310" />
              <mxPoint x="-67" y="310" />
            </Array>
          </mxGeometry>
        </mxCell>
        <mxCell id="BnXLRBWE-8tpJ5axlchm-148" value="Array" style="rounded=0;whiteSpace=wrap;html=1;fillColor=#B3B3B3;" vertex="1" parent="1">
          <mxGeometry x="-330" y="150" width="120" height="60" as="geometry" />
        </mxCell>
        <mxCell id="BnXLRBWE-8tpJ5axlchm-150" value="" style="endArrow=classic;html=1;entryX=0.75;entryY=0;entryDx=0;entryDy=0;exitX=0.75;exitY=1;exitDx=0;exitDy=0;" edge="1" parent="1" source="BnXLRBWE-8tpJ5axlchm-152" target="BnXLRBWE-8tpJ5axlchm-148">
          <mxGeometry width="50" height="50" relative="1" as="geometry">
            <mxPoint x="-265" y="105" as="sourcePoint" />
            <mxPoint x="-215" y="55" as="targetPoint" />
          </mxGeometry>
        </mxCell>
        <mxCell id="BnXLRBWE-8tpJ5axlchm-151" value="" style="endArrow=classic;html=1;exitX=0.25;exitY=0;exitDx=0;exitDy=0;entryX=0.25;entryY=1;entryDx=0;entryDy=0;" edge="1" parent="1" source="BnXLRBWE-8tpJ5axlchm-148" target="BnXLRBWE-8tpJ5axlchm-152">
          <mxGeometry width="50" height="50" relative="1" as="geometry">
            <mxPoint x="-60" y="230" as="sourcePoint" />
            <mxPoint x="-300" y="100" as="targetPoint" />
          </mxGeometry>
        </mxCell>
        <mxCell id="BnXLRBWE-8tpJ5axlchm-152" value="array_shove (or parent function)" style="rounded=0;whiteSpace=wrap;html=1;fillColor=#B3B3B3;" vertex="1" parent="1">
          <mxGeometry x="-330" y="34" width="120" height="60" as="geometry" />
        </mxCell>
        <mxCell id="BnXLRBWE-8tpJ5axlchm-157" style="edgeStyle=orthogonalEdgeStyle;rounded=0;orthogonalLoop=1;jettySize=auto;html=1;exitX=0;exitY=0.5;exitDx=0;exitDy=0;entryX=1;entryY=0.356;entryDx=0;entryDy=0;entryPerimeter=0;" edge="1" parent="1" source="BnXLRBWE-8tpJ5axlchm-145" target="BnXLRBWE-8tpJ5axlchm-152">
          <mxGeometry relative="1" as="geometry" />
        </mxCell>
        <mxCell id="BnXLRBWE-8tpJ5axlchm-161" value="" style="endArrow=classic;html=1;exitX=0.5;exitY=1;exitDx=0;exitDy=0;" edge="1" parent="1" source="BnXLRBWE-8tpJ5axlchm-42" target="BnXLRBWE-8tpJ5axlchm-162">
          <mxGeometry width="50" height="50" relative="1" as="geometry">
            <mxPoint x="350" y="280" as="sourcePoint" />
            <mxPoint x="-400" y="120" as="targetPoint" />
            <Array as="points">
              <mxPoint x="240" y="240" />
              <mxPoint x="310" y="240" />
              <mxPoint x="310" y="-80" />
            </Array>
          </mxGeometry>
        </mxCell>
        <mxCell id="BnXLRBWE-8tpJ5axlchm-162" value="form_data" style="swimlane;fontStyle=0;childLayout=stackLayout;horizontal=1;startSize=26;fillColor=none;horizontalStack=0;resizeParent=1;resizeParentMax=0;resizeLast=0;collapsible=1;marginBottom=0;" vertex="1" parent="1">
          <mxGeometry x="-270" y="-110" width="140" height="52" as="geometry" />
        </mxCell>
        <mxCell id="BnXLRBWE-8tpJ5axlchm-163" value="row_num" style="text;strokeColor=none;fillColor=none;align=left;verticalAlign=top;spacingLeft=4;spacingRight=4;overflow=hidden;rotatable=0;points=[[0,0.5],[1,0.5]];portConstraint=eastwest;" vertex="1" parent="BnXLRBWE-8tpJ5axlchm-162">
          <mxGeometry y="26" width="140" height="26" as="geometry" />
        </mxCell>
        <mxCell id="BnXLRBWE-8tpJ5axlchm-166" value="" style="endArrow=classic;html=1;exitX=-0.015;exitY=0.103;exitDx=0;exitDy=0;exitPerimeter=0;entryX=0.75;entryY=0;entryDx=0;entryDy=0;" edge="1" parent="1" source="BnXLRBWE-8tpJ5axlchm-163" target="BnXLRBWE-8tpJ5axlchm-167">
          <mxGeometry width="50" height="50" relative="1" as="geometry">
            <mxPoint x="-340" y="120" as="sourcePoint" />
            <mxPoint x="-400" y="120" as="targetPoint" />
            <Array as="points">
              <mxPoint x="-396" y="-80" />
            </Array>
          </mxGeometry>
        </mxCell>
        <mxCell id="BnXLRBWE-8tpJ5axlchm-167" value="deletion function" style="rounded=0;whiteSpace=wrap;html=1;fillColor=#B3B3B3;" vertex="1" parent="1">
          <mxGeometry x="-475" y="150" width="105" height="60" as="geometry" />
        </mxCell>
        <mxCell id="BnXLRBWE-8tpJ5axlchm-168" value="" style="endArrow=classic;html=1;exitX=0;exitY=0.75;exitDx=0;exitDy=0;entryX=1;entryY=0.75;entryDx=0;entryDy=0;" edge="1" parent="1" source="BnXLRBWE-8tpJ5axlchm-148" target="BnXLRBWE-8tpJ5axlchm-167">
          <mxGeometry width="50" height="50" relative="1" as="geometry">
            <mxPoint x="-340" y="210" as="sourcePoint" />
            <mxPoint x="-290" y="160" as="targetPoint" />
          </mxGeometry>
        </mxCell>
        <mxCell id="BnXLRBWE-8tpJ5axlchm-169" value="" style="endArrow=classic;html=1;exitX=1;exitY=0.25;exitDx=0;exitDy=0;entryX=0;entryY=0.25;entryDx=0;entryDy=0;" edge="1" parent="1" source="BnXLRBWE-8tpJ5axlchm-167" target="BnXLRBWE-8tpJ5axlchm-148">
          <mxGeometry width="50" height="50" relative="1" as="geometry">
            <mxPoint x="-340" y="120" as="sourcePoint" />
            <mxPoint x="-290" y="70" as="targetPoint" />
          </mxGeometry>
        </mxCell>
      </root>
    </mxGraphModel>
  </diagram>
</mxfile>
